<?xml version="1.0" encoding="utf-8" standalone="no"?>
<!DOCTYPE svg PUBLIC "-//W3C//DTD SVG 1.1//EN"
  "http://www.w3.org/Graphics/SVG/1.1/DTD/svg11.dtd">
<svg xmlns:xlink="http://www.w3.org/1999/xlink" width="460.8pt" height="345.6pt" viewBox="0 0 460.8 345.6" xmlns="http://www.w3.org/2000/svg" version="1.1">
 <metadata>
  <rdf:RDF xmlns:dc="http://purl.org/dc/elements/1.1/" xmlns:cc="http://creativecommons.org/ns#" xmlns:rdf="http://www.w3.org/1999/02/22-rdf-syntax-ns#">
   <cc:Work>
    <dc:type rdf:resource="http://purl.org/dc/dcmitype/StillImage"/>
    <dc:date>2023-10-31T11:39:45.480244</dc:date>
    <dc:format>image/svg+xml</dc:format>
    <dc:creator>
     <cc:Agent>
      <dc:title>Matplotlib v3.8.0, https://matplotlib.org/</dc:title>
     </cc:Agent>
    </dc:creator>
   </cc:Work>
  </rdf:RDF>
 </metadata>
 <defs>
  <style type="text/css">*{stroke-linejoin: round; stroke-linecap: butt}</style>
 </defs>
 <g id="figure_1">
  <g id="patch_1">
   <path d="M 0 345.6 
L 460.8 345.6 
L 460.8 0 
L 0 0 
z
" style="fill: #ffffff"/>
  </g>
  <g id="axes_1">
   <g id="patch_2">
    <path d="M 57.6 307.584 
L 414.72 307.584 
L 414.72 41.472 
L 57.6 41.472 
z
" style="fill: #ffffff"/>
   </g>
   <g id="matplotlib.axis_1">
    <g id="xtick_1">
     <g id="text_1">
      <!-- HNRNPK -->
      <g style="fill: #262626" transform="translate(78.215375 356.60275) rotate(-90) scale(0.1 -0.1)">
       <defs>
        <path id="DejaVuSans-48" d="M 628 4666 
L 1259 4666 
L 1259 2753 
L 3553 2753 
L 3553 4666 
L 4184 4666 
L 4184 0 
L 3553 0 
L 3553 2222 
L 1259 2222 
L 1259 0 
L 628 0 
L 628 4666 
z
" transform="scale(0.015625)"/>
        <path id="DejaVuSans-4e" d="M 628 4666 
L 1478 4666 
L 3547 763 
L 3547 4666 
L 4159 4666 
L 4159 0 
L 3309 0 
L 1241 3903 
L 1241 0 
L 628 0 
L 628 4666 
z
" transform="scale(0.015625)"/>
        <path id="DejaVuSans-52" d="M 2841 2188 
Q 3044 2119 3236 1894 
Q 3428 1669 3622 1275 
L 4263 0 
L 3584 0 
L 2988 1197 
Q 2756 1666 2539 1819 
Q 2322 1972 1947 1972 
L 1259 1972 
L 1259 0 
L 628 0 
L 628 4666 
L 2053 4666 
Q 2853 4666 3247 4331 
Q 3641 3997 3641 3322 
Q 3641 2881 3436 2590 
Q 3231 2300 2841 2188 
z
M 1259 4147 
L 1259 2491 
L 2053 2491 
Q 2509 2491 2742 2702 
Q 2975 2913 2975 3322 
Q 2975 3731 2742 3939 
Q 2509 4147 2053 4147 
L 1259 4147 
z
" transform="scale(0.015625)"/>
        <path id="DejaVuSans-50" d="M 1259 4147 
L 1259 2394 
L 2053 2394 
Q 2494 2394 2734 2622 
Q 2975 2850 2975 3272 
Q 2975 3691 2734 3919 
Q 2494 4147 2053 4147 
L 1259 4147 
z
M 628 4666 
L 2053 4666 
Q 2838 4666 3239 4311 
Q 3641 3956 3641 3272 
Q 3641 2581 3239 2228 
Q 2838 1875 2053 1875 
L 1259 1875 
L 1259 0 
L 628 0 
L 628 4666 
z
" transform="scale(0.015625)"/>
        <path id="DejaVuSans-4b" d="M 628 4666 
L 1259 4666 
L 1259 2694 
L 3353 4666 
L 4166 4666 
L 1850 2491 
L 4331 0 
L 3500 0 
L 1259 2247 
L 1259 0 
L 628 0 
L 628 4666 
z
" transform="scale(0.015625)"/>
       </defs>
       <use xlink:href="#DejaVuSans-48"/>
       <use xlink:href="#DejaVuSans-4e" x="75.195312"/>
       <use xlink:href="#DejaVuSans-52" x="150"/>
       <use xlink:href="#DejaVuSans-4e" x="219.482422"/>
       <use xlink:href="#DejaVuSans-50" x="294.287109"/>
       <use xlink:href="#DejaVuSans-4b" x="354.589844"/>
      </g>
     </g>
    </g>
    <g id="xtick_2">
     <g id="text_2">
      <!-- PTBP1 -->
      <g style="fill: #262626" transform="translate(113.927375 345.974625) rotate(-90) scale(0.1 -0.1)">
       <defs>
        <path id="DejaVuSans-54" d="M -19 4666 
L 3928 4666 
L 3928 4134 
L 2272 4134 
L 2272 0 
L 1638 0 
L 1638 4134 
L -19 4134 
L -19 4666 
z
" transform="scale(0.015625)"/>
        <path id="DejaVuSans-42" d="M 1259 2228 
L 1259 519 
L 2272 519 
Q 2781 519 3026 730 
Q 3272 941 3272 1375 
Q 3272 1813 3026 2020 
Q 2781 2228 2272 2228 
L 1259 2228 
z
M 1259 4147 
L 1259 2741 
L 2194 2741 
Q 2656 2741 2882 2914 
Q 3109 3088 3109 3444 
Q 3109 3797 2882 3972 
Q 2656 4147 2194 4147 
L 1259 4147 
z
M 628 4666 
L 2241 4666 
Q 2963 4666 3353 4366 
Q 3744 4066 3744 3513 
Q 3744 3084 3544 2831 
Q 3344 2578 2956 2516 
Q 3422 2416 3680 2098 
Q 3938 1781 3938 1306 
Q 3938 681 3513 340 
Q 3088 0 2303 0 
L 628 0 
L 628 4666 
z
" transform="scale(0.015625)"/>
        <path id="DejaVuSans-31" d="M 794 531 
L 1825 531 
L 1825 4091 
L 703 3866 
L 703 4441 
L 1819 4666 
L 2450 4666 
L 2450 531 
L 3481 531 
L 3481 0 
L 794 0 
L 794 531 
z
" transform="scale(0.015625)"/>
       </defs>
       <use xlink:href="#DejaVuSans-50"/>
       <use xlink:href="#DejaVuSans-54" x="60.302734"/>
       <use xlink:href="#DejaVuSans-42" x="121.386719"/>
       <use xlink:href="#DejaVuSans-50" x="189.990234"/>
       <use xlink:href="#DejaVuSans-31" x="250.292969"/>
      </g>
     </g>
    </g>
    <g id="xtick_3">
     <g id="text_3">
      <!-- PUM2 -->
      <g style="fill: #262626" transform="translate(149.639375 342.923062) rotate(-90) scale(0.1 -0.1)">
       <defs>
        <path id="DejaVuSans-55" d="M 556 4666 
L 1191 4666 
L 1191 1831 
Q 1191 1081 1462 751 
Q 1734 422 2344 422 
Q 2950 422 3222 751 
Q 3494 1081 3494 1831 
L 3494 4666 
L 4128 4666 
L 4128 1753 
Q 4128 841 3676 375 
Q 3225 -91 2344 -91 
Q 1459 -91 1007 375 
Q 556 841 556 1753 
L 556 4666 
z
" transform="scale(0.015625)"/>
        <path id="DejaVuSans-4d" d="M 628 4666 
L 1569 4666 
L 2759 1491 
L 3956 4666 
L 4897 4666 
L 4897 0 
L 4281 0 
L 4281 4097 
L 3078 897 
L 2444 897 
L 1241 4097 
L 1241 0 
L 628 0 
L 628 4666 
z
" transform="scale(0.015625)"/>
        <path id="DejaVuSans-32" d="M 1228 531 
L 3431 531 
L 3431 0 
L 469 0 
L 469 531 
Q 828 903 1448 1529 
Q 2069 2156 2228 2338 
Q 2531 2678 2651 2914 
Q 2772 3150 2772 3378 
Q 2772 3750 2511 3984 
Q 2250 4219 1831 4219 
Q 1534 4219 1204 4116 
Q 875 4013 500 3803 
L 500 4441 
Q 881 4594 1212 4672 
Q 1544 4750 1819 4750 
Q 2544 4750 2975 4387 
Q 3406 4025 3406 3419 
Q 3406 3131 3298 2873 
Q 3191 2616 2906 2266 
Q 2828 2175 2409 1742 
Q 1991 1309 1228 531 
z
" transform="scale(0.015625)"/>
       </defs>
       <use xlink:href="#DejaVuSans-50"/>
       <use xlink:href="#DejaVuSans-55" x="60.302734"/>
       <use xlink:href="#DejaVuSans-4d" x="133.496094"/>
       <use xlink:href="#DejaVuSans-32" x="219.775391"/>
      </g>
     </g>
    </g>
    <g id="xtick_4">
     <g id="text_4">
      <!-- QKI -->
      <g style="fill: #262626" transform="translate(185.351375 331.963687) rotate(-90) scale(0.1 -0.1)">
       <defs>
        <path id="DejaVuSans-51" d="M 2522 4238 
Q 1834 4238 1429 3725 
Q 1025 3213 1025 2328 
Q 1025 1447 1429 934 
Q 1834 422 2522 422 
Q 3209 422 3611 934 
Q 4013 1447 4013 2328 
Q 4013 3213 3611 3725 
Q 3209 4238 2522 4238 
z
M 3406 84 
L 4238 -825 
L 3475 -825 
L 2784 -78 
Q 2681 -84 2626 -87 
Q 2572 -91 2522 -91 
Q 1538 -91 948 567 
Q 359 1225 359 2328 
Q 359 3434 948 4092 
Q 1538 4750 2522 4750 
Q 3503 4750 4090 4092 
Q 4678 3434 4678 2328 
Q 4678 1516 4351 937 
Q 4025 359 3406 84 
z
" transform="scale(0.015625)"/>
        <path id="DejaVuSans-49" d="M 628 4666 
L 1259 4666 
L 1259 0 
L 628 0 
L 628 4666 
z
" transform="scale(0.015625)"/>
       </defs>
       <use xlink:href="#DejaVuSans-51"/>
       <use xlink:href="#DejaVuSans-4b" x="78.710938"/>
       <use xlink:href="#DejaVuSans-49" x="144.287109"/>
      </g>
     </g>
    </g>
    <g id="xtick_5">
     <g id="text_5">
      <!-- RBFOX2 -->
      <g style="fill: #262626" transform="translate(221.063375 354.591812) rotate(-90) scale(0.1 -0.1)">
       <defs>
        <path id="DejaVuSans-46" d="M 628 4666 
L 3309 4666 
L 3309 4134 
L 1259 4134 
L 1259 2759 
L 3109 2759 
L 3109 2228 
L 1259 2228 
L 1259 0 
L 628 0 
L 628 4666 
z
" transform="scale(0.015625)"/>
        <path id="DejaVuSans-4f" d="M 2522 4238 
Q 1834 4238 1429 3725 
Q 1025 3213 1025 2328 
Q 1025 1447 1429 934 
Q 1834 422 2522 422 
Q 3209 422 3611 934 
Q 4013 1447 4013 2328 
Q 4013 3213 3611 3725 
Q 3209 4238 2522 4238 
z
M 2522 4750 
Q 3503 4750 4090 4092 
Q 4678 3434 4678 2328 
Q 4678 1225 4090 567 
Q 3503 -91 2522 -91 
Q 1538 -91 948 565 
Q 359 1222 359 2328 
Q 359 3434 948 4092 
Q 1538 4750 2522 4750 
z
" transform="scale(0.015625)"/>
        <path id="DejaVuSans-58" d="M 403 4666 
L 1081 4666 
L 2241 2931 
L 3406 4666 
L 4084 4666 
L 2584 2425 
L 4184 0 
L 3506 0 
L 2194 1984 
L 872 0 
L 191 0 
L 1856 2491 
L 403 4666 
z
" transform="scale(0.015625)"/>
       </defs>
       <use xlink:href="#DejaVuSans-52"/>
       <use xlink:href="#DejaVuSans-42" x="69.482422"/>
       <use xlink:href="#DejaVuSans-46" x="138.085938"/>
       <use xlink:href="#DejaVuSans-4f" x="195.605469"/>
       <use xlink:href="#DejaVuSans-58" x="267.941406"/>
       <use xlink:href="#DejaVuSans-32" x="336.447266"/>
      </g>
     </g>
    </g>
    <g id="xtick_6">
     <g id="text_6">
      <!-- SF3B4 -->
      <g style="fill: #262626" transform="translate(256.775375 346.269937) rotate(-90) scale(0.1 -0.1)">
       <defs>
        <path id="DejaVuSans-53" d="M 3425 4513 
L 3425 3897 
Q 3066 4069 2747 4153 
Q 2428 4238 2131 4238 
Q 1616 4238 1336 4038 
Q 1056 3838 1056 3469 
Q 1056 3159 1242 3001 
Q 1428 2844 1947 2747 
L 2328 2669 
Q 3034 2534 3370 2195 
Q 3706 1856 3706 1288 
Q 3706 609 3251 259 
Q 2797 -91 1919 -91 
Q 1588 -91 1214 -16 
Q 841 59 441 206 
L 441 856 
Q 825 641 1194 531 
Q 1563 422 1919 422 
Q 2459 422 2753 634 
Q 3047 847 3047 1241 
Q 3047 1584 2836 1778 
Q 2625 1972 2144 2069 
L 1759 2144 
Q 1053 2284 737 2584 
Q 422 2884 422 3419 
Q 422 4038 858 4394 
Q 1294 4750 2059 4750 
Q 2388 4750 2728 4690 
Q 3069 4631 3425 4513 
z
" transform="scale(0.015625)"/>
        <path id="DejaVuSans-33" d="M 2597 2516 
Q 3050 2419 3304 2112 
Q 3559 1806 3559 1356 
Q 3559 666 3084 287 
Q 2609 -91 1734 -91 
Q 1441 -91 1130 -33 
Q 819 25 488 141 
L 488 750 
Q 750 597 1062 519 
Q 1375 441 1716 441 
Q 2309 441 2620 675 
Q 2931 909 2931 1356 
Q 2931 1769 2642 2001 
Q 2353 2234 1838 2234 
L 1294 2234 
L 1294 2753 
L 1863 2753 
Q 2328 2753 2575 2939 
Q 2822 3125 2822 3475 
Q 2822 3834 2567 4026 
Q 2313 4219 1838 4219 
Q 1578 4219 1281 4162 
Q 984 4106 628 3988 
L 628 4550 
Q 988 4650 1302 4700 
Q 1616 4750 1894 4750 
Q 2613 4750 3031 4423 
Q 3450 4097 3450 3541 
Q 3450 3153 3228 2886 
Q 3006 2619 2597 2516 
z
" transform="scale(0.015625)"/>
        <path id="DejaVuSans-34" d="M 2419 4116 
L 825 1625 
L 2419 1625 
L 2419 4116 
z
M 2253 4666 
L 3047 4666 
L 3047 1625 
L 3713 1625 
L 3713 1100 
L 3047 1100 
L 3047 0 
L 2419 0 
L 2419 1100 
L 313 1100 
L 313 1709 
L 2253 4666 
z
" transform="scale(0.015625)"/>
       </defs>
       <use xlink:href="#DejaVuSans-53"/>
       <use xlink:href="#DejaVuSans-46" x="63.476562"/>
       <use xlink:href="#DejaVuSans-33" x="120.996094"/>
       <use xlink:href="#DejaVuSans-42" x="184.619141"/>
       <use xlink:href="#DejaVuSans-34" x="253.222656"/>
      </g>
     </g>
    </g>
    <g id="xtick_7">
     <g id="text_7">
      <!-- SRSF1 -->
      <g style="fill: #262626" transform="translate(292.487375 346.343375) rotate(-90) scale(0.1 -0.1)">
       <use xlink:href="#DejaVuSans-53"/>
       <use xlink:href="#DejaVuSans-52" x="63.476562"/>
       <use xlink:href="#DejaVuSans-53" x="132.958984"/>
       <use xlink:href="#DejaVuSans-46" x="196.435547"/>
       <use xlink:href="#DejaVuSans-31" x="253.955078"/>
      </g>
     </g>
    </g>
    <g id="xtick_8">
     <g id="text_8">
      <!-- TARDBP -->
      <g style="fill: #262626" transform="translate(328.199375 354.2965) rotate(-90) scale(0.1 -0.1)">
       <defs>
        <path id="DejaVuSans-41" d="M 2188 4044 
L 1331 1722 
L 3047 1722 
L 2188 4044 
z
M 1831 4666 
L 2547 4666 
L 4325 0 
L 3669 0 
L 3244 1197 
L 1141 1197 
L 716 0 
L 50 0 
L 1831 4666 
z
" transform="scale(0.015625)"/>
        <path id="DejaVuSans-44" d="M 1259 4147 
L 1259 519 
L 2022 519 
Q 2988 519 3436 956 
Q 3884 1394 3884 2338 
Q 3884 3275 3436 3711 
Q 2988 4147 2022 4147 
L 1259 4147 
z
M 628 4666 
L 1925 4666 
Q 3281 4666 3915 4102 
Q 4550 3538 4550 2338 
Q 4550 1131 3912 565 
Q 3275 0 1925 0 
L 628 0 
L 628 4666 
z
" transform="scale(0.015625)"/>
       </defs>
       <use xlink:href="#DejaVuSans-54"/>
       <use xlink:href="#DejaVuSans-41" x="53.333984"/>
       <use xlink:href="#DejaVuSans-52" x="121.742188"/>
       <use xlink:href="#DejaVuSans-44" x="191.224609"/>
       <use xlink:href="#DejaVuSans-42" x="268.226562"/>
       <use xlink:href="#DejaVuSans-50" x="336.830078"/>
      </g>
     </g>
    </g>
    <g id="xtick_9">
     <g id="text_9">
      <!-- TIA1 -->
      <g style="fill: #262626" transform="translate(363.911375 336.844937) rotate(-90) scale(0.1 -0.1)">
       <use xlink:href="#DejaVuSans-54"/>
       <use xlink:href="#DejaVuSans-49" x="61.083984"/>
       <use xlink:href="#DejaVuSans-41" x="90.576172"/>
       <use xlink:href="#DejaVuSans-31" x="158.984375"/>
      </g>
     </g>
    </g>
    <g id="xtick_10">
     <g id="text_10">
      <!-- U2AF1 -->
      <g style="fill: #262626" transform="translate(399.623375 347.219937) rotate(-90) scale(0.1 -0.1)">
       <use xlink:href="#DejaVuSans-55"/>
       <use xlink:href="#DejaVuSans-32" x="73.193359"/>
       <use xlink:href="#DejaVuSans-41" x="136.816406"/>
       <use xlink:href="#DejaVuSans-46" x="205.224609"/>
       <use xlink:href="#DejaVuSans-31" x="262.744141"/>
      </g>
     </g>
    </g>
    <g id="text_11">
     <!-- Exp -->
     <g style="fill: #262626" transform="translate(226.867031 368.201188) scale(0.1 -0.1)">
      <defs>
       <path id="DejaVuSans-45" d="M 628 4666 
L 3578 4666 
L 3578 4134 
L 1259 4134 
L 1259 2753 
L 3481 2753 
L 3481 2222 
L 1259 2222 
L 1259 531 
L 3634 531 
L 3634 0 
L 628 0 
L 628 4666 
z
" transform="scale(0.015625)"/>
       <path id="DejaVuSans-78" d="M 3513 3500 
L 2247 1797 
L 3578 0 
L 2900 0 
L 1881 1375 
L 863 0 
L 184 0 
L 1544 1831 
L 300 3500 
L 978 3500 
L 1906 2253 
L 2834 3500 
L 3513 3500 
z
" transform="scale(0.015625)"/>
       <path id="DejaVuSans-70" d="M 1159 525 
L 1159 -1331 
L 581 -1331 
L 581 3500 
L 1159 3500 
L 1159 2969 
Q 1341 3281 1617 3432 
Q 1894 3584 2278 3584 
Q 2916 3584 3314 3078 
Q 3713 2572 3713 1747 
Q 3713 922 3314 415 
Q 2916 -91 2278 -91 
Q 1894 -91 1617 61 
Q 1341 213 1159 525 
z
M 3116 1747 
Q 3116 2381 2855 2742 
Q 2594 3103 2138 3103 
Q 1681 3103 1420 2742 
Q 1159 2381 1159 1747 
Q 1159 1113 1420 752 
Q 1681 391 2138 391 
Q 2594 391 2855 752 
Q 3116 1113 3116 1747 
z
" transform="scale(0.015625)"/>
      </defs>
      <use xlink:href="#DejaVuSans-45"/>
      <use xlink:href="#DejaVuSans-78" x="63.183594"/>
      <use xlink:href="#DejaVuSans-70" x="122.363281"/>
     </g>
    </g>
   </g>
   <g id="matplotlib.axis_2">
    <g id="ytick_1">
     <g id="line2d_1">
      <path d="M 57.6 307.584 
L 414.72 307.584 
" clip-path="url(#p3784ddaa0a)" style="fill: none; stroke: #cccccc; stroke-width: 0.8; stroke-linecap: round"/>
     </g>
     <g id="text_12">
      <!-- 0.0 -->
      <g style="fill: #262626" transform="translate(34.696875 311.383219) scale(0.1 -0.1)">
       <defs>
        <path id="DejaVuSans-30" d="M 2034 4250 
Q 1547 4250 1301 3770 
Q 1056 3291 1056 2328 
Q 1056 1369 1301 889 
Q 1547 409 2034 409 
Q 2525 409 2770 889 
Q 3016 1369 3016 2328 
Q 3016 3291 2770 3770 
Q 2525 4250 2034 4250 
z
M 2034 4750 
Q 2819 4750 3233 4129 
Q 3647 3509 3647 2328 
Q 3647 1150 3233 529 
Q 2819 -91 2034 -91 
Q 1250 -91 836 529 
Q 422 1150 422 2328 
Q 422 3509 836 4129 
Q 1250 4750 2034 4750 
z
" transform="scale(0.015625)"/>
        <path id="DejaVuSans-2e" d="M 684 794 
L 1344 794 
L 1344 0 
L 684 0 
L 684 794 
z
" transform="scale(0.015625)"/>
       </defs>
       <use xlink:href="#DejaVuSans-30"/>
       <use xlink:href="#DejaVuSans-2e" x="63.623047"/>
       <use xlink:href="#DejaVuSans-30" x="95.410156"/>
      </g>
     </g>
    </g>
    <g id="ytick_2">
     <g id="line2d_2">
      <path d="M 57.6 255.298507 
L 414.72 255.298507 
" clip-path="url(#p3784ddaa0a)" style="fill: none; stroke: #cccccc; stroke-width: 0.8; stroke-linecap: round"/>
     </g>
     <g id="text_13">
      <!-- 0.2 -->
      <g style="fill: #262626" transform="translate(34.696875 259.097725) scale(0.1 -0.1)">
       <use xlink:href="#DejaVuSans-30"/>
       <use xlink:href="#DejaVuSans-2e" x="63.623047"/>
       <use xlink:href="#DejaVuSans-32" x="95.410156"/>
      </g>
     </g>
    </g>
    <g id="ytick_3">
     <g id="line2d_3">
      <path d="M 57.6 203.013013 
L 414.72 203.013013 
" clip-path="url(#p3784ddaa0a)" style="fill: none; stroke: #cccccc; stroke-width: 0.8; stroke-linecap: round"/>
     </g>
     <g id="text_14">
      <!-- 0.4 -->
      <g style="fill: #262626" transform="translate(34.696875 206.812232) scale(0.1 -0.1)">
       <use xlink:href="#DejaVuSans-30"/>
       <use xlink:href="#DejaVuSans-2e" x="63.623047"/>
       <use xlink:href="#DejaVuSans-34" x="95.410156"/>
      </g>
     </g>
    </g>
    <g id="ytick_4">
     <g id="line2d_4">
      <path d="M 57.6 150.72752 
L 414.72 150.72752 
" clip-path="url(#p3784ddaa0a)" style="fill: none; stroke: #cccccc; stroke-width: 0.8; stroke-linecap: round"/>
     </g>
     <g id="text_15">
      <!-- 0.6 -->
      <g style="fill: #262626" transform="translate(34.696875 154.526739) scale(0.1 -0.1)">
       <defs>
        <path id="DejaVuSans-36" d="M 2113 2584 
Q 1688 2584 1439 2293 
Q 1191 2003 1191 1497 
Q 1191 994 1439 701 
Q 1688 409 2113 409 
Q 2538 409 2786 701 
Q 3034 994 3034 1497 
Q 3034 2003 2786 2293 
Q 2538 2584 2113 2584 
z
M 3366 4563 
L 3366 3988 
Q 3128 4100 2886 4159 
Q 2644 4219 2406 4219 
Q 1781 4219 1451 3797 
Q 1122 3375 1075 2522 
Q 1259 2794 1537 2939 
Q 1816 3084 2150 3084 
Q 2853 3084 3261 2657 
Q 3669 2231 3669 1497 
Q 3669 778 3244 343 
Q 2819 -91 2113 -91 
Q 1303 -91 875 529 
Q 447 1150 447 2328 
Q 447 3434 972 4092 
Q 1497 4750 2381 4750 
Q 2619 4750 2861 4703 
Q 3103 4656 3366 4563 
z
" transform="scale(0.015625)"/>
       </defs>
       <use xlink:href="#DejaVuSans-30"/>
       <use xlink:href="#DejaVuSans-2e" x="63.623047"/>
       <use xlink:href="#DejaVuSans-36" x="95.410156"/>
      </g>
     </g>
    </g>
    <g id="ytick_5">
     <g id="line2d_5">
      <path d="M 57.6 98.442026 
L 414.72 98.442026 
" clip-path="url(#p3784ddaa0a)" style="fill: none; stroke: #cccccc; stroke-width: 0.8; stroke-linecap: round"/>
     </g>
     <g id="text_16">
      <!-- 0.8 -->
      <g style="fill: #262626" transform="translate(34.696875 102.241245) scale(0.1 -0.1)">
       <defs>
        <path id="DejaVuSans-38" d="M 2034 2216 
Q 1584 2216 1326 1975 
Q 1069 1734 1069 1313 
Q 1069 891 1326 650 
Q 1584 409 2034 409 
Q 2484 409 2743 651 
Q 3003 894 3003 1313 
Q 3003 1734 2745 1975 
Q 2488 2216 2034 2216 
z
M 1403 2484 
Q 997 2584 770 2862 
Q 544 3141 544 3541 
Q 544 4100 942 4425 
Q 1341 4750 2034 4750 
Q 2731 4750 3128 4425 
Q 3525 4100 3525 3541 
Q 3525 3141 3298 2862 
Q 3072 2584 2669 2484 
Q 3125 2378 3379 2068 
Q 3634 1759 3634 1313 
Q 3634 634 3220 271 
Q 2806 -91 2034 -91 
Q 1263 -91 848 271 
Q 434 634 434 1313 
Q 434 1759 690 2068 
Q 947 2378 1403 2484 
z
M 1172 3481 
Q 1172 3119 1398 2916 
Q 1625 2713 2034 2713 
Q 2441 2713 2670 2916 
Q 2900 3119 2900 3481 
Q 2900 3844 2670 4047 
Q 2441 4250 2034 4250 
Q 1625 4250 1398 4047 
Q 1172 3844 1172 3481 
z
" transform="scale(0.015625)"/>
       </defs>
       <use xlink:href="#DejaVuSans-30"/>
       <use xlink:href="#DejaVuSans-2e" x="63.623047"/>
       <use xlink:href="#DejaVuSans-38" x="95.410156"/>
      </g>
     </g>
    </g>
    <g id="ytick_6">
     <g id="line2d_6">
      <path d="M 57.6 46.156533 
L 414.72 46.156533 
" clip-path="url(#p3784ddaa0a)" style="fill: none; stroke: #cccccc; stroke-width: 0.8; stroke-linecap: round"/>
     </g>
     <g id="text_17">
      <!-- 1.0 -->
      <g style="fill: #262626" transform="translate(34.696875 49.955752) scale(0.1 -0.1)">
       <use xlink:href="#DejaVuSans-31"/>
       <use xlink:href="#DejaVuSans-2e" x="63.623047"/>
       <use xlink:href="#DejaVuSans-30" x="95.410156"/>
      </g>
     </g>
    </g>
    <g id="text_18">
     <!-- Accuracy -->
     <g style="fill: #262626" transform="translate(28.617187 197.356125) rotate(-90) scale(0.1 -0.1)">
      <defs>
       <path id="DejaVuSans-63" d="M 3122 3366 
L 3122 2828 
Q 2878 2963 2633 3030 
Q 2388 3097 2138 3097 
Q 1578 3097 1268 2742 
Q 959 2388 959 1747 
Q 959 1106 1268 751 
Q 1578 397 2138 397 
Q 2388 397 2633 464 
Q 2878 531 3122 666 
L 3122 134 
Q 2881 22 2623 -34 
Q 2366 -91 2075 -91 
Q 1284 -91 818 406 
Q 353 903 353 1747 
Q 353 2603 823 3093 
Q 1294 3584 2113 3584 
Q 2378 3584 2631 3529 
Q 2884 3475 3122 3366 
z
" transform="scale(0.015625)"/>
       <path id="DejaVuSans-75" d="M 544 1381 
L 544 3500 
L 1119 3500 
L 1119 1403 
Q 1119 906 1312 657 
Q 1506 409 1894 409 
Q 2359 409 2629 706 
Q 2900 1003 2900 1516 
L 2900 3500 
L 3475 3500 
L 3475 0 
L 2900 0 
L 2900 538 
Q 2691 219 2414 64 
Q 2138 -91 1772 -91 
Q 1169 -91 856 284 
Q 544 659 544 1381 
z
M 1991 3584 
L 1991 3584 
z
" transform="scale(0.015625)"/>
       <path id="DejaVuSans-72" d="M 2631 2963 
Q 2534 3019 2420 3045 
Q 2306 3072 2169 3072 
Q 1681 3072 1420 2755 
Q 1159 2438 1159 1844 
L 1159 0 
L 581 0 
L 581 3500 
L 1159 3500 
L 1159 2956 
Q 1341 3275 1631 3429 
Q 1922 3584 2338 3584 
Q 2397 3584 2469 3576 
Q 2541 3569 2628 3553 
L 2631 2963 
z
" transform="scale(0.015625)"/>
       <path id="DejaVuSans-61" d="M 2194 1759 
Q 1497 1759 1228 1600 
Q 959 1441 959 1056 
Q 959 750 1161 570 
Q 1363 391 1709 391 
Q 2188 391 2477 730 
Q 2766 1069 2766 1631 
L 2766 1759 
L 2194 1759 
z
M 3341 1997 
L 3341 0 
L 2766 0 
L 2766 531 
Q 2569 213 2275 61 
Q 1981 -91 1556 -91 
Q 1019 -91 701 211 
Q 384 513 384 1019 
Q 384 1609 779 1909 
Q 1175 2209 1959 2209 
L 2766 2209 
L 2766 2266 
Q 2766 2663 2505 2880 
Q 2244 3097 1772 3097 
Q 1472 3097 1187 3025 
Q 903 2953 641 2809 
L 641 3341 
Q 956 3463 1253 3523 
Q 1550 3584 1831 3584 
Q 2591 3584 2966 3190 
Q 3341 2797 3341 1997 
z
" transform="scale(0.015625)"/>
       <path id="DejaVuSans-79" d="M 2059 -325 
Q 1816 -950 1584 -1140 
Q 1353 -1331 966 -1331 
L 506 -1331 
L 506 -850 
L 844 -850 
Q 1081 -850 1212 -737 
Q 1344 -625 1503 -206 
L 1606 56 
L 191 3500 
L 800 3500 
L 1894 763 
L 2988 3500 
L 3597 3500 
L 2059 -325 
z
" transform="scale(0.015625)"/>
      </defs>
      <use xlink:href="#DejaVuSans-41"/>
      <use xlink:href="#DejaVuSans-63" x="66.658203"/>
      <use xlink:href="#DejaVuSans-63" x="121.638672"/>
      <use xlink:href="#DejaVuSans-75" x="176.619141"/>
      <use xlink:href="#DejaVuSans-72" x="239.998047"/>
      <use xlink:href="#DejaVuSans-61" x="281.111328"/>
      <use xlink:href="#DejaVuSans-63" x="342.390625"/>
      <use xlink:href="#DejaVuSans-79" x="397.371094"/>
     </g>
    </g>
   </g>
   <g id="patch_3">
    <path d="M 61.1712 307.584 
L 68.3136 307.584 
L 68.3136 64.178154 
L 61.1712 64.178154 
z
" clip-path="url(#p3784ddaa0a)" style="fill: #4a4c7e; stroke: #ffffff; stroke-linejoin: miter"/>
   </g>
   <g id="patch_4">
    <path d="M 96.8832 307.584 
L 104.0256 307.584 
L 104.0256 68.36616 
L 96.8832 68.36616 
z
" clip-path="url(#p3784ddaa0a)" style="fill: #4a4c7e; stroke: #ffffff; stroke-linejoin: miter"/>
   </g>
   <g id="patch_5">
    <path d="M 132.5952 307.584 
L 139.7376 307.584 
L 139.7376 78.24901 
L 132.5952 78.24901 
z
" clip-path="url(#p3784ddaa0a)" style="fill: #4a4c7e; stroke: #ffffff; stroke-linejoin: miter"/>
   </g>
   <g id="patch_6">
    <path d="M 168.3072 307.584 
L 175.4496 307.584 
L 175.4496 57.049349 
L 168.3072 57.049349 
z
" clip-path="url(#p3784ddaa0a)" style="fill: #4a4c7e; stroke: #ffffff; stroke-linejoin: miter"/>
   </g>
   <g id="patch_7">
    <path d="M 204.0192 307.584 
L 211.1616 307.584 
L 211.1616 80.945603 
L 204.0192 80.945603 
z
" clip-path="url(#p3784ddaa0a)" style="fill: #4a4c7e; stroke: #ffffff; stroke-linejoin: miter"/>
   </g>
   <g id="patch_8">
    <path d="M 239.7312 307.584 
L 246.8736 307.584 
L 246.8736 76.955056 
L 239.7312 76.955056 
z
" clip-path="url(#p3784ddaa0a)" style="fill: #4a4c7e; stroke: #ffffff; stroke-linejoin: miter"/>
   </g>
   <g id="patch_9">
    <path d="M 275.4432 307.584 
L 282.5856 307.584 
L 282.5856 80.82456 
L 275.4432 80.82456 
z
" clip-path="url(#p3784ddaa0a)" style="fill: #4a4c7e; stroke: #ffffff; stroke-linejoin: miter"/>
   </g>
   <g id="patch_10">
    <path d="M 311.1552 307.584 
L 318.2976 307.584 
L 318.2976 54.144 
L 311.1552 54.144 
z
" clip-path="url(#p3784ddaa0a)" style="fill: #4a4c7e; stroke: #ffffff; stroke-linejoin: miter"/>
   </g>
   <g id="patch_11">
    <path d="M 346.8672 307.584 
L 354.0096 307.584 
L 354.0096 89.787977 
L 346.8672 89.787977 
z
" clip-path="url(#p3784ddaa0a)" style="fill: #4a4c7e; stroke: #ffffff; stroke-linejoin: miter"/>
   </g>
   <g id="patch_12">
    <path d="M 382.5792 307.584 
L 389.7216 307.584 
L 389.7216 85.837492 
L 382.5792 85.837492 
z
" clip-path="url(#p3784ddaa0a)" style="fill: #4a4c7e; stroke: #ffffff; stroke-linejoin: miter"/>
   </g>
   <g id="patch_13">
    <path d="M 68.3136 307.584 
L 75.456 307.584 
L 75.456 63.49378 
L 68.3136 63.49378 
z
" clip-path="url(#p3784ddaa0a)" style="fill: #367182; stroke: #ffffff; stroke-linejoin: miter"/>
   </g>
   <g id="patch_14">
    <path d="M 104.0256 307.584 
L 111.168 307.584 
L 111.168 64.893381 
L 104.0256 64.893381 
z
" clip-path="url(#p3784ddaa0a)" style="fill: #367182; stroke: #ffffff; stroke-linejoin: miter"/>
   </g>
   <g id="patch_15">
    <path d="M 139.7376 307.584 
L 146.88 307.584 
L 146.88 80.232246 
L 139.7376 80.232246 
z
" clip-path="url(#p3784ddaa0a)" style="fill: #367182; stroke: #ffffff; stroke-linejoin: miter"/>
   </g>
   <g id="patch_16">
    <path d="M 175.4496 307.584 
L 182.592 307.584 
L 182.592 65.457834 
L 175.4496 65.457834 
z
" clip-path="url(#p3784ddaa0a)" style="fill: #367182; stroke: #ffffff; stroke-linejoin: miter"/>
   </g>
   <g id="patch_17">
    <path d="M 211.1616 307.584 
L 218.304 307.584 
L 218.304 77.743256 
L 211.1616 77.743256 
z
" clip-path="url(#p3784ddaa0a)" style="fill: #367182; stroke: #ffffff; stroke-linejoin: miter"/>
   </g>
   <g id="patch_18">
    <path d="M 246.8736 307.584 
L 254.016 307.584 
L 254.016 76.075093 
L 246.8736 76.075093 
z
" clip-path="url(#p3784ddaa0a)" style="fill: #367182; stroke: #ffffff; stroke-linejoin: miter"/>
   </g>
   <g id="patch_19">
    <path d="M 282.5856 307.584 
L 289.728 307.584 
L 289.728 87.583737 
L 282.5856 87.583737 
z
" clip-path="url(#p3784ddaa0a)" style="fill: #367182; stroke: #ffffff; stroke-linejoin: miter"/>
   </g>
   <g id="patch_20">
    <path d="M 318.2976 307.584 
L 325.44 307.584 
L 325.44 55.331324 
L 318.2976 55.331324 
z
" clip-path="url(#p3784ddaa0a)" style="fill: #367182; stroke: #ffffff; stroke-linejoin: miter"/>
   </g>
   <g id="patch_21">
    <path d="M 354.0096 307.584 
L 361.152 307.584 
L 361.152 91.593918 
L 354.0096 91.593918 
z
" clip-path="url(#p3784ddaa0a)" style="fill: #367182; stroke: #ffffff; stroke-linejoin: miter"/>
   </g>
   <g id="patch_22">
    <path d="M 389.7216 307.584 
L 396.864 307.584 
L 396.864 86.22652 
L 389.7216 86.22652 
z
" clip-path="url(#p3784ddaa0a)" style="fill: #367182; stroke: #ffffff; stroke-linejoin: miter"/>
   </g>
   <g id="patch_23">
    <path d="M 75.456 307.584 
L 82.5984 307.584 
L 82.5984 63.265655 
L 75.456 63.265655 
z
" clip-path="url(#p3784ddaa0a)" style="fill: #33977c; stroke: #ffffff; stroke-linejoin: miter"/>
   </g>
   <g id="patch_24">
    <path d="M 111.168 307.584 
L 118.3104 307.584 
L 118.3104 64.32804 
L 111.168 64.32804 
z
" clip-path="url(#p3784ddaa0a)" style="fill: #33977c; stroke: #ffffff; stroke-linejoin: miter"/>
   </g>
   <g id="patch_25">
    <path d="M 146.88 307.584 
L 154.0224 307.584 
L 154.0224 83.026821 
L 146.88 83.026821 
z
" clip-path="url(#p3784ddaa0a)" style="fill: #33977c; stroke: #ffffff; stroke-linejoin: miter"/>
   </g>
   <g id="patch_26">
    <path d="M 182.592 307.584 
L 189.7344 307.584 
L 189.7344 62.017997 
L 182.592 62.017997 
z
" clip-path="url(#p3784ddaa0a)" style="fill: #33977c; stroke: #ffffff; stroke-linejoin: miter"/>
   </g>
   <g id="patch_27">
    <path d="M 218.304 307.584 
L 225.4464 307.584 
L 225.4464 77.306577 
L 218.304 77.306577 
z
" clip-path="url(#p3784ddaa0a)" style="fill: #33977c; stroke: #ffffff; stroke-linejoin: miter"/>
   </g>
   <g id="patch_28">
    <path d="M 254.016 307.584 
L 261.1584 307.584 
L 261.1584 79.71493 
L 254.016 79.71493 
z
" clip-path="url(#p3784ddaa0a)" style="fill: #33977c; stroke: #ffffff; stroke-linejoin: miter"/>
   </g>
   <g id="patch_29">
    <path d="M 289.728 307.584 
L 296.8704 307.584 
L 296.8704 84.531213 
L 289.728 84.531213 
z
" clip-path="url(#p3784ddaa0a)" style="fill: #33977c; stroke: #ffffff; stroke-linejoin: miter"/>
   </g>
   <g id="patch_30">
    <path d="M 325.44 307.584 
L 332.5824 307.584 
L 332.5824 56.518648 
L 325.44 56.518648 
z
" clip-path="url(#p3784ddaa0a)" style="fill: #33977c; stroke: #ffffff; stroke-linejoin: miter"/>
   </g>
   <g id="patch_31">
    <path d="M 361.152 307.584 
L 368.2944 307.584 
L 368.2944 93.038661 
L 361.152 93.038661 
z
" clip-path="url(#p3784ddaa0a)" style="fill: #33977c; stroke: #ffffff; stroke-linejoin: miter"/>
   </g>
   <g id="patch_32">
    <path d="M 396.864 307.584 
L 404.0064 307.584 
L 404.0064 90.505838 
L 396.864 90.505838 
z
" clip-path="url(#p3784ddaa0a)" style="fill: #33977c; stroke: #ffffff; stroke-linejoin: miter"/>
   </g>
   <g id="patch_33">
    <path d="M 82.5984 307.584 
L 89.7408 307.584 
L 89.7408 60.984439 
L 82.5984 60.984439 
z
" clip-path="url(#p3784ddaa0a)" style="fill: #80c161; stroke: #ffffff; stroke-linejoin: miter"/>
   </g>
   <g id="patch_34">
    <path d="M 118.3104 307.584 
L 125.4528 307.584 
L 125.4528 65.700996 
L 118.3104 65.700996 
z
" clip-path="url(#p3784ddaa0a)" style="fill: #80c161; stroke: #ffffff; stroke-linejoin: miter"/>
   </g>
   <g id="patch_35">
    <path d="M 154.0224 307.584 
L 161.1648 307.584 
L 161.1648 81.674605 
L 154.0224 81.674605 
z
" clip-path="url(#p3784ddaa0a)" style="fill: #80c161; stroke: #ffffff; stroke-linejoin: miter"/>
   </g>
   <g id="patch_36">
    <path d="M 189.7344 307.584 
L 196.8768 307.584 
L 196.8768 56.476046 
L 189.7344 56.476046 
z
" clip-path="url(#p3784ddaa0a)" style="fill: #80c161; stroke: #ffffff; stroke-linejoin: miter"/>
   </g>
   <g id="patch_37">
    <path d="M 225.4464 307.584 
L 232.5888 307.584 
L 232.5888 76.578775 
L 225.4464 76.578775 
z
" clip-path="url(#p3784ddaa0a)" style="fill: #80c161; stroke: #ffffff; stroke-linejoin: miter"/>
   </g>
   <g id="patch_38">
    <path d="M 261.1584 307.584 
L 268.3008 307.584 
L 268.3008 78.274986 
L 261.1584 78.274986 
z
" clip-path="url(#p3784ddaa0a)" style="fill: #80c161; stroke: #ffffff; stroke-linejoin: miter"/>
   </g>
   <g id="patch_39">
    <path d="M 296.8704 307.584 
L 304.0128 307.584 
L 304.0128 87.80178 
L 296.8704 87.80178 
z
" clip-path="url(#p3784ddaa0a)" style="fill: #80c161; stroke: #ffffff; stroke-linejoin: miter"/>
   </g>
   <g id="patch_40">
    <path d="M 332.5824 307.584 
L 339.7248 307.584 
L 339.7248 55.655139 
L 332.5824 55.655139 
z
" clip-path="url(#p3784ddaa0a)" style="fill: #80c161; stroke: #ffffff; stroke-linejoin: miter"/>
   </g>
   <g id="patch_41">
    <path d="M 368.2944 307.584 
L 375.4368 307.584 
L 375.4368 91.377199 
L 368.2944 91.377199 
z
" clip-path="url(#p3784ddaa0a)" style="fill: #80c161; stroke: #ffffff; stroke-linejoin: miter"/>
   </g>
   <g id="patch_42">
    <path d="M 404.0064 307.584 
L 411.1488 307.584 
L 411.1488 88.171657 
L 404.0064 88.171657 
z
" clip-path="url(#p3784ddaa0a)" style="fill: #80c161; stroke: #ffffff; stroke-linejoin: miter"/>
   </g>
   <g id="line2d_7">
    <path clip-path="url(#p3784ddaa0a)" style="fill: none; stroke: #424242; stroke-width: 2.7; stroke-linecap: round"/>
   </g>
   <g id="line2d_8">
    <path clip-path="url(#p3784ddaa0a)" style="fill: none; stroke: #424242; stroke-width: 2.7; stroke-linecap: round"/>
   </g>
   <g id="line2d_9">
    <path clip-path="url(#p3784ddaa0a)" style="fill: none; stroke: #424242; stroke-width: 2.7; stroke-linecap: round"/>
   </g>
   <g id="line2d_10">
    <path clip-path="url(#p3784ddaa0a)" style="fill: none; stroke: #424242; stroke-width: 2.7; stroke-linecap: round"/>
   </g>
   <g id="line2d_11">
    <path clip-path="url(#p3784ddaa0a)" style="fill: none; stroke: #424242; stroke-width: 2.7; stroke-linecap: round"/>
   </g>
   <g id="line2d_12">
    <path clip-path="url(#p3784ddaa0a)" style="fill: none; stroke: #424242; stroke-width: 2.7; stroke-linecap: round"/>
   </g>
   <g id="line2d_13">
    <path clip-path="url(#p3784ddaa0a)" style="fill: none; stroke: #424242; stroke-width: 2.7; stroke-linecap: round"/>
   </g>
   <g id="line2d_14">
    <path clip-path="url(#p3784ddaa0a)" style="fill: none; stroke: #424242; stroke-width: 2.7; stroke-linecap: round"/>
   </g>
   <g id="line2d_15">
    <path clip-path="url(#p3784ddaa0a)" style="fill: none; stroke: #424242; stroke-width: 2.7; stroke-linecap: round"/>
   </g>
   <g id="line2d_16">
    <path clip-path="url(#p3784ddaa0a)" style="fill: none; stroke: #424242; stroke-width: 2.7; stroke-linecap: round"/>
   </g>
   <g id="line2d_17">
    <path clip-path="url(#p3784ddaa0a)" style="fill: none; stroke: #424242; stroke-width: 2.7; stroke-linecap: round"/>
   </g>
   <g id="line2d_18">
    <path clip-path="url(#p3784ddaa0a)" style="fill: none; stroke: #424242; stroke-width: 2.7; stroke-linecap: round"/>
   </g>
   <g id="line2d_19">
    <path clip-path="url(#p3784ddaa0a)" style="fill: none; stroke: #424242; stroke-width: 2.7; stroke-linecap: round"/>
   </g>
   <g id="line2d_20">
    <path clip-path="url(#p3784ddaa0a)" style="fill: none; stroke: #424242; stroke-width: 2.7; stroke-linecap: round"/>
   </g>
   <g id="line2d_21">
    <path clip-path="url(#p3784ddaa0a)" style="fill: none; stroke: #424242; stroke-width: 2.7; stroke-linecap: round"/>
   </g>
   <g id="line2d_22">
    <path clip-path="url(#p3784ddaa0a)" style="fill: none; stroke: #424242; stroke-width: 2.7; stroke-linecap: round"/>
   </g>
   <g id="line2d_23">
    <path clip-path="url(#p3784ddaa0a)" style="fill: none; stroke: #424242; stroke-width: 2.7; stroke-linecap: round"/>
   </g>
   <g id="line2d_24">
    <path clip-path="url(#p3784ddaa0a)" style="fill: none; stroke: #424242; stroke-width: 2.7; stroke-linecap: round"/>
   </g>
   <g id="line2d_25">
    <path clip-path="url(#p3784ddaa0a)" style="fill: none; stroke: #424242; stroke-width: 2.7; stroke-linecap: round"/>
   </g>
   <g id="line2d_26">
    <path clip-path="url(#p3784ddaa0a)" style="fill: none; stroke: #424242; stroke-width: 2.7; stroke-linecap: round"/>
   </g>
   <g id="line2d_27">
    <path clip-path="url(#p3784ddaa0a)" style="fill: none; stroke: #424242; stroke-width: 2.7; stroke-linecap: round"/>
   </g>
   <g id="line2d_28">
    <path clip-path="url(#p3784ddaa0a)" style="fill: none; stroke: #424242; stroke-width: 2.7; stroke-linecap: round"/>
   </g>
   <g id="line2d_29">
    <path clip-path="url(#p3784ddaa0a)" style="fill: none; stroke: #424242; stroke-width: 2.7; stroke-linecap: round"/>
   </g>
   <g id="line2d_30">
    <path clip-path="url(#p3784ddaa0a)" style="fill: none; stroke: #424242; stroke-width: 2.7; stroke-linecap: round"/>
   </g>
   <g id="line2d_31">
    <path clip-path="url(#p3784ddaa0a)" style="fill: none; stroke: #424242; stroke-width: 2.7; stroke-linecap: round"/>
   </g>
   <g id="line2d_32">
    <path clip-path="url(#p3784ddaa0a)" style="fill: none; stroke: #424242; stroke-width: 2.7; stroke-linecap: round"/>
   </g>
   <g id="line2d_33">
    <path clip-path="url(#p3784ddaa0a)" style="fill: none; stroke: #424242; stroke-width: 2.7; stroke-linecap: round"/>
   </g>
   <g id="line2d_34">
    <path clip-path="url(#p3784ddaa0a)" style="fill: none; stroke: #424242; stroke-width: 2.7; stroke-linecap: round"/>
   </g>
   <g id="line2d_35">
    <path clip-path="url(#p3784ddaa0a)" style="fill: none; stroke: #424242; stroke-width: 2.7; stroke-linecap: round"/>
   </g>
   <g id="line2d_36">
    <path clip-path="url(#p3784ddaa0a)" style="fill: none; stroke: #424242; stroke-width: 2.7; stroke-linecap: round"/>
   </g>
   <g id="line2d_37">
    <path clip-path="url(#p3784ddaa0a)" style="fill: none; stroke: #424242; stroke-width: 2.7; stroke-linecap: round"/>
   </g>
   <g id="line2d_38">
    <path clip-path="url(#p3784ddaa0a)" style="fill: none; stroke: #424242; stroke-width: 2.7; stroke-linecap: round"/>
   </g>
   <g id="line2d_39">
    <path clip-path="url(#p3784ddaa0a)" style="fill: none; stroke: #424242; stroke-width: 2.7; stroke-linecap: round"/>
   </g>
   <g id="line2d_40">
    <path clip-path="url(#p3784ddaa0a)" style="fill: none; stroke: #424242; stroke-width: 2.7; stroke-linecap: round"/>
   </g>
   <g id="line2d_41">
    <path clip-path="url(#p3784ddaa0a)" style="fill: none; stroke: #424242; stroke-width: 2.7; stroke-linecap: round"/>
   </g>
   <g id="line2d_42">
    <path clip-path="url(#p3784ddaa0a)" style="fill: none; stroke: #424242; stroke-width: 2.7; stroke-linecap: round"/>
   </g>
   <g id="line2d_43">
    <path clip-path="url(#p3784ddaa0a)" style="fill: none; stroke: #424242; stroke-width: 2.7; stroke-linecap: round"/>
   </g>
   <g id="line2d_44">
    <path clip-path="url(#p3784ddaa0a)" style="fill: none; stroke: #424242; stroke-width: 2.7; stroke-linecap: round"/>
   </g>
   <g id="line2d_45">
    <path clip-path="url(#p3784ddaa0a)" style="fill: none; stroke: #424242; stroke-width: 2.7; stroke-linecap: round"/>
   </g>
   <g id="line2d_46">
    <path clip-path="url(#p3784ddaa0a)" style="fill: none; stroke: #424242; stroke-width: 2.7; stroke-linecap: round"/>
   </g>
   <g id="patch_43">
    <path d="M 57.6 307.584 
L 57.6 41.472 
" style="fill: none; stroke: #cccccc; stroke-width: 0.8; stroke-linejoin: miter; stroke-linecap: square"/>
   </g>
   <g id="patch_44">
    <path d="M 414.72 307.584 
L 414.72 41.472 
" style="fill: none; stroke: #cccccc; stroke-width: 0.8; stroke-linejoin: miter; stroke-linecap: square"/>
   </g>
   <g id="patch_45">
    <path d="M 57.6 307.584 
L 414.72 307.584 
" style="fill: none; stroke: #cccccc; stroke-width: 0.8; stroke-linejoin: miter; stroke-linecap: square"/>
   </g>
   <g id="patch_46">
    <path d="M 57.6 41.472 
L 414.72 41.472 
" style="fill: none; stroke: #cccccc; stroke-width: 0.8; stroke-linejoin: miter; stroke-linecap: square"/>
   </g>
   <g id="text_19">
    <!-- Accuracy for each protein experiment -->
    <g style="fill: #262626" transform="translate(122.629688 35.472) scale(0.12 -0.12)">
     <defs>
      <path id="DejaVuSans-20" transform="scale(0.015625)"/>
      <path id="DejaVuSans-66" d="M 2375 4863 
L 2375 4384 
L 1825 4384 
Q 1516 4384 1395 4259 
Q 1275 4134 1275 3809 
L 1275 3500 
L 2222 3500 
L 2222 3053 
L 1275 3053 
L 1275 0 
L 697 0 
L 697 3053 
L 147 3053 
L 147 3500 
L 697 3500 
L 697 3744 
Q 697 4328 969 4595 
Q 1241 4863 1831 4863 
L 2375 4863 
z
" transform="scale(0.015625)"/>
      <path id="DejaVuSans-6f" d="M 1959 3097 
Q 1497 3097 1228 2736 
Q 959 2375 959 1747 
Q 959 1119 1226 758 
Q 1494 397 1959 397 
Q 2419 397 2687 759 
Q 2956 1122 2956 1747 
Q 2956 2369 2687 2733 
Q 2419 3097 1959 3097 
z
M 1959 3584 
Q 2709 3584 3137 3096 
Q 3566 2609 3566 1747 
Q 3566 888 3137 398 
Q 2709 -91 1959 -91 
Q 1206 -91 779 398 
Q 353 888 353 1747 
Q 353 2609 779 3096 
Q 1206 3584 1959 3584 
z
" transform="scale(0.015625)"/>
      <path id="DejaVuSans-65" d="M 3597 1894 
L 3597 1613 
L 953 1613 
Q 991 1019 1311 708 
Q 1631 397 2203 397 
Q 2534 397 2845 478 
Q 3156 559 3463 722 
L 3463 178 
Q 3153 47 2828 -22 
Q 2503 -91 2169 -91 
Q 1331 -91 842 396 
Q 353 884 353 1716 
Q 353 2575 817 3079 
Q 1281 3584 2069 3584 
Q 2775 3584 3186 3129 
Q 3597 2675 3597 1894 
z
M 3022 2063 
Q 3016 2534 2758 2815 
Q 2500 3097 2075 3097 
Q 1594 3097 1305 2825 
Q 1016 2553 972 2059 
L 3022 2063 
z
" transform="scale(0.015625)"/>
      <path id="DejaVuSans-68" d="M 3513 2113 
L 3513 0 
L 2938 0 
L 2938 2094 
Q 2938 2591 2744 2837 
Q 2550 3084 2163 3084 
Q 1697 3084 1428 2787 
Q 1159 2491 1159 1978 
L 1159 0 
L 581 0 
L 581 4863 
L 1159 4863 
L 1159 2956 
Q 1366 3272 1645 3428 
Q 1925 3584 2291 3584 
Q 2894 3584 3203 3211 
Q 3513 2838 3513 2113 
z
" transform="scale(0.015625)"/>
      <path id="DejaVuSans-74" d="M 1172 4494 
L 1172 3500 
L 2356 3500 
L 2356 3053 
L 1172 3053 
L 1172 1153 
Q 1172 725 1289 603 
Q 1406 481 1766 481 
L 2356 481 
L 2356 0 
L 1766 0 
Q 1100 0 847 248 
Q 594 497 594 1153 
L 594 3053 
L 172 3053 
L 172 3500 
L 594 3500 
L 594 4494 
L 1172 4494 
z
" transform="scale(0.015625)"/>
      <path id="DejaVuSans-69" d="M 603 3500 
L 1178 3500 
L 1178 0 
L 603 0 
L 603 3500 
z
M 603 4863 
L 1178 4863 
L 1178 4134 
L 603 4134 
L 603 4863 
z
" transform="scale(0.015625)"/>
      <path id="DejaVuSans-6e" d="M 3513 2113 
L 3513 0 
L 2938 0 
L 2938 2094 
Q 2938 2591 2744 2837 
Q 2550 3084 2163 3084 
Q 1697 3084 1428 2787 
Q 1159 2491 1159 1978 
L 1159 0 
L 581 0 
L 581 3500 
L 1159 3500 
L 1159 2956 
Q 1366 3272 1645 3428 
Q 1925 3584 2291 3584 
Q 2894 3584 3203 3211 
Q 3513 2838 3513 2113 
z
" transform="scale(0.015625)"/>
      <path id="DejaVuSans-6d" d="M 3328 2828 
Q 3544 3216 3844 3400 
Q 4144 3584 4550 3584 
Q 5097 3584 5394 3201 
Q 5691 2819 5691 2113 
L 5691 0 
L 5113 0 
L 5113 2094 
Q 5113 2597 4934 2840 
Q 4756 3084 4391 3084 
Q 3944 3084 3684 2787 
Q 3425 2491 3425 1978 
L 3425 0 
L 2847 0 
L 2847 2094 
Q 2847 2600 2669 2842 
Q 2491 3084 2119 3084 
Q 1678 3084 1418 2786 
Q 1159 2488 1159 1978 
L 1159 0 
L 581 0 
L 581 3500 
L 1159 3500 
L 1159 2956 
Q 1356 3278 1631 3431 
Q 1906 3584 2284 3584 
Q 2666 3584 2933 3390 
Q 3200 3197 3328 2828 
z
" transform="scale(0.015625)"/>
     </defs>
     <use xlink:href="#DejaVuSans-41"/>
     <use xlink:href="#DejaVuSans-63" x="66.658203"/>
     <use xlink:href="#DejaVuSans-63" x="121.638672"/>
     <use xlink:href="#DejaVuSans-75" x="176.619141"/>
     <use xlink:href="#DejaVuSans-72" x="239.998047"/>
     <use xlink:href="#DejaVuSans-61" x="281.111328"/>
     <use xlink:href="#DejaVuSans-63" x="342.390625"/>
     <use xlink:href="#DejaVuSans-79" x="397.371094"/>
     <use xlink:href="#DejaVuSans-20" x="456.550781"/>
     <use xlink:href="#DejaVuSans-66" x="488.337891"/>
     <use xlink:href="#DejaVuSans-6f" x="523.542969"/>
     <use xlink:href="#DejaVuSans-72" x="584.724609"/>
     <use xlink:href="#DejaVuSans-20" x="625.837891"/>
     <use xlink:href="#DejaVuSans-65" x="657.625"/>
     <use xlink:href="#DejaVuSans-61" x="719.148438"/>
     <use xlink:href="#DejaVuSans-63" x="780.427734"/>
     <use xlink:href="#DejaVuSans-68" x="835.408203"/>
     <use xlink:href="#DejaVuSans-20" x="898.787109"/>
     <use xlink:href="#DejaVuSans-70" x="930.574219"/>
     <use xlink:href="#DejaVuSans-72" x="994.050781"/>
     <use xlink:href="#DejaVuSans-6f" x="1032.914062"/>
     <use xlink:href="#DejaVuSans-74" x="1094.095703"/>
     <use xlink:href="#DejaVuSans-65" x="1133.304688"/>
     <use xlink:href="#DejaVuSans-69" x="1194.828125"/>
     <use xlink:href="#DejaVuSans-6e" x="1222.611328"/>
     <use xlink:href="#DejaVuSans-20" x="1285.990234"/>
     <use xlink:href="#DejaVuSans-65" x="1317.777344"/>
     <use xlink:href="#DejaVuSans-78" x="1377.550781"/>
     <use xlink:href="#DejaVuSans-70" x="1436.730469"/>
     <use xlink:href="#DejaVuSans-65" x="1500.207031"/>
     <use xlink:href="#DejaVuSans-72" x="1561.730469"/>
     <use xlink:href="#DejaVuSans-69" x="1602.84375"/>
     <use xlink:href="#DejaVuSans-6d" x="1630.626953"/>
     <use xlink:href="#DejaVuSans-65" x="1728.039062"/>
     <use xlink:href="#DejaVuSans-6e" x="1789.5625"/>
     <use xlink:href="#DejaVuSans-74" x="1852.941406"/>
    </g>
   </g>
   <g id="legend_1">
    <g id="patch_47">
     <path d="M 312.87625 303.584 
L 409.12 303.584 
Q 410.72 303.584 410.72 301.984 
L 410.72 242.436187 
Q 410.72 240.836187 409.12 240.836187 
L 312.87625 240.836187 
Q 311.27625 240.836187 311.27625 242.436187 
L 311.27625 301.984 
Q 311.27625 303.584 312.87625 303.584 
z
" style="fill: #ffffff; opacity: 0.8; stroke: #cccccc; stroke-linejoin: miter"/>
    </g>
    <g id="text_20">
     <!-- Models -->
     <g style="fill: #262626" transform="translate(345.141953 250.874781) scale(0.09 -0.09)">
      <defs>
       <path id="DejaVuSans-64" d="M 2906 2969 
L 2906 4863 
L 3481 4863 
L 3481 0 
L 2906 0 
L 2906 525 
Q 2725 213 2448 61 
Q 2172 -91 1784 -91 
Q 1150 -91 751 415 
Q 353 922 353 1747 
Q 353 2572 751 3078 
Q 1150 3584 1784 3584 
Q 2172 3584 2448 3432 
Q 2725 3281 2906 2969 
z
M 947 1747 
Q 947 1113 1208 752 
Q 1469 391 1925 391 
Q 2381 391 2643 752 
Q 2906 1113 2906 1747 
Q 2906 2381 2643 2742 
Q 2381 3103 1925 3103 
Q 1469 3103 1208 2742 
Q 947 2381 947 1747 
z
" transform="scale(0.015625)"/>
       <path id="DejaVuSans-6c" d="M 603 4863 
L 1178 4863 
L 1178 0 
L 603 0 
L 603 4863 
z
" transform="scale(0.015625)"/>
       <path id="DejaVuSans-73" d="M 2834 3397 
L 2834 2853 
Q 2591 2978 2328 3040 
Q 2066 3103 1784 3103 
Q 1356 3103 1142 2972 
Q 928 2841 928 2578 
Q 928 2378 1081 2264 
Q 1234 2150 1697 2047 
L 1894 2003 
Q 2506 1872 2764 1633 
Q 3022 1394 3022 966 
Q 3022 478 2636 193 
Q 2250 -91 1575 -91 
Q 1294 -91 989 -36 
Q 684 19 347 128 
L 347 722 
Q 666 556 975 473 
Q 1284 391 1588 391 
Q 1994 391 2212 530 
Q 2431 669 2431 922 
Q 2431 1156 2273 1281 
Q 2116 1406 1581 1522 
L 1381 1569 
Q 847 1681 609 1914 
Q 372 2147 372 2553 
Q 372 3047 722 3315 
Q 1072 3584 1716 3584 
Q 2034 3584 2315 3537 
Q 2597 3491 2834 3397 
z
" transform="scale(0.015625)"/>
      </defs>
      <use xlink:href="#DejaVuSans-4d"/>
      <use xlink:href="#DejaVuSans-6f" x="86.279297"/>
      <use xlink:href="#DejaVuSans-64" x="147.460938"/>
      <use xlink:href="#DejaVuSans-65" x="210.9375"/>
      <use xlink:href="#DejaVuSans-6c" x="272.460938"/>
      <use xlink:href="#DejaVuSans-73" x="300.244141"/>
     </g>
    </g>
    <g id="patch_48">
     <path d="M 314.47625 262.82525 
L 330.47625 262.82525 
L 330.47625 257.22525 
L 314.47625 257.22525 
z
" style="fill: #4a4c7e; stroke: #ffffff; stroke-linejoin: miter"/>
    </g>
    <g id="text_21">
     <!-- deepbind -->
     <g style="fill: #262626" transform="translate(336.87625 262.82525) scale(0.08 -0.08)">
      <defs>
       <path id="DejaVuSans-62" d="M 3116 1747 
Q 3116 2381 2855 2742 
Q 2594 3103 2138 3103 
Q 1681 3103 1420 2742 
Q 1159 2381 1159 1747 
Q 1159 1113 1420 752 
Q 1681 391 2138 391 
Q 2594 391 2855 752 
Q 3116 1113 3116 1747 
z
M 1159 2969 
Q 1341 3281 1617 3432 
Q 1894 3584 2278 3584 
Q 2916 3584 3314 3078 
Q 3713 2572 3713 1747 
Q 3713 922 3314 415 
Q 2916 -91 2278 -91 
Q 1894 -91 1617 61 
Q 1341 213 1159 525 
L 1159 0 
L 581 0 
L 581 4863 
L 1159 4863 
L 1159 2969 
z
" transform="scale(0.015625)"/>
      </defs>
      <use xlink:href="#DejaVuSans-64"/>
      <use xlink:href="#DejaVuSans-65" x="63.476562"/>
      <use xlink:href="#DejaVuSans-65" x="125"/>
      <use xlink:href="#DejaVuSans-70" x="186.523438"/>
      <use xlink:href="#DejaVuSans-62" x="250"/>
      <use xlink:href="#DejaVuSans-69" x="313.476562"/>
      <use xlink:href="#DejaVuSans-6e" x="341.259766"/>
      <use xlink:href="#DejaVuSans-64" x="404.638672"/>
     </g>
    </g>
    <g id="patch_49">
     <path d="M 314.47625 274.56775 
L 330.47625 274.56775 
L 330.47625 268.96775 
L 314.47625 268.96775 
z
" style="fill: #367182; stroke: #ffffff; stroke-linejoin: miter"/>
    </g>
    <g id="text_22">
     <!-- deepbind_exp -->
     <g style="fill: #262626" transform="translate(336.87625 274.56775) scale(0.08 -0.08)">
      <defs>
       <path id="DejaVuSans-5f" d="M 3263 -1063 
L 3263 -1509 
L -63 -1509 
L -63 -1063 
L 3263 -1063 
z
" transform="scale(0.015625)"/>
      </defs>
      <use xlink:href="#DejaVuSans-64"/>
      <use xlink:href="#DejaVuSans-65" x="63.476562"/>
      <use xlink:href="#DejaVuSans-65" x="125"/>
      <use xlink:href="#DejaVuSans-70" x="186.523438"/>
      <use xlink:href="#DejaVuSans-62" x="250"/>
      <use xlink:href="#DejaVuSans-69" x="313.476562"/>
      <use xlink:href="#DejaVuSans-6e" x="341.259766"/>
      <use xlink:href="#DejaVuSans-64" x="404.638672"/>
      <use xlink:href="#DejaVuSans-5f" x="468.115234"/>
      <use xlink:href="#DejaVuSans-65" x="518.115234"/>
      <use xlink:href="#DejaVuSans-78" x="577.888672"/>
      <use xlink:href="#DejaVuSans-70" x="637.068359"/>
     </g>
    </g>
    <g id="patch_50">
     <path d="M 314.47625 286.53275 
L 330.47625 286.53275 
L 330.47625 280.93275 
L 314.47625 280.93275 
z
" style="fill: #33977c; stroke: #ffffff; stroke-linejoin: miter"/>
    </g>
    <g id="text_23">
     <!-- baseline_cnn -->
     <g style="fill: #262626" transform="translate(336.87625 286.53275) scale(0.08 -0.08)">
      <use xlink:href="#DejaVuSans-62"/>
      <use xlink:href="#DejaVuSans-61" x="63.476562"/>
      <use xlink:href="#DejaVuSans-73" x="124.755859"/>
      <use xlink:href="#DejaVuSans-65" x="176.855469"/>
      <use xlink:href="#DejaVuSans-6c" x="238.378906"/>
      <use xlink:href="#DejaVuSans-69" x="266.162109"/>
      <use xlink:href="#DejaVuSans-6e" x="293.945312"/>
      <use xlink:href="#DejaVuSans-65" x="357.324219"/>
      <use xlink:href="#DejaVuSans-5f" x="418.847656"/>
      <use xlink:href="#DejaVuSans-63" x="468.847656"/>
      <use xlink:href="#DejaVuSans-6e" x="523.828125"/>
      <use xlink:href="#DejaVuSans-6e" x="587.207031"/>
     </g>
    </g>
    <g id="patch_51">
     <path d="M 314.47625 298.49775 
L 330.47625 298.49775 
L 330.47625 292.89775 
L 314.47625 292.89775 
z
" style="fill: #80c161; stroke: #ffffff; stroke-linejoin: miter"/>
    </g>
    <g id="text_24">
     <!-- baseline_cnn_exp -->
     <g style="fill: #262626" transform="translate(336.87625 298.49775) scale(0.08 -0.08)">
      <use xlink:href="#DejaVuSans-62"/>
      <use xlink:href="#DejaVuSans-61" x="63.476562"/>
      <use xlink:href="#DejaVuSans-73" x="124.755859"/>
      <use xlink:href="#DejaVuSans-65" x="176.855469"/>
      <use xlink:href="#DejaVuSans-6c" x="238.378906"/>
      <use xlink:href="#DejaVuSans-69" x="266.162109"/>
      <use xlink:href="#DejaVuSans-6e" x="293.945312"/>
      <use xlink:href="#DejaVuSans-65" x="357.324219"/>
      <use xlink:href="#DejaVuSans-5f" x="418.847656"/>
      <use xlink:href="#DejaVuSans-63" x="468.847656"/>
      <use xlink:href="#DejaVuSans-6e" x="523.828125"/>
      <use xlink:href="#DejaVuSans-6e" x="587.207031"/>
      <use xlink:href="#DejaVuSans-5f" x="650.585938"/>
      <use xlink:href="#DejaVuSans-65" x="700.585938"/>
      <use xlink:href="#DejaVuSans-78" x="760.359375"/>
      <use xlink:href="#DejaVuSans-70" x="819.539062"/>
     </g>
    </g>
   </g>
  </g>
 </g>
 <defs>
  <clipPath id="p3784ddaa0a">
   <rect x="57.6" y="41.472" width="357.12" height="266.112"/>
  </clipPath>
 </defs>
</svg>
